PathFileType	4	(x/y/z)	S08_PSF_T14
DataRate	CameraRate	NumFrames	NumMarkers	Units	OrigDataRate	OrigDataStartFrame	OrigNumFrames
240	240	4	51	mm	240	53	417
Frame#	Time	Sternum			R.Acromium			L.Acromium			Top.Head			R.ASIS			L.ASIS			R.PSIS			L.PSIS			R.Great.Tro			L.Great.Tro			R.Iliac.Crest			L.Iliac.Crest			V.Sacral			R.Thigh.Upper.Post			R.Thigh.Lower.Ant			R.Thigh.Lower.Post			R.Thigh.Upper.Ant			R.Knee.Lat			R.Knee.Med			R.Shank.Upper.Post			R.Shank.Lower.Ant			R.Shank.Lower.Post			R.Shank.Upper.Ant			R.Ankle.Lat			R.Ankle.Med			R.Heel.Upper			R.Heel.Med			R.Heel.Lat			R.Toe.Lat			R.Toe.Med			R.Toe.Tip			L.Thigh.Upper.Post			L.Thigh.Lower.Ant			L.Thigh.Lower.Post			L.Thigh.Upper.Ant			L.Knee.Lat			L.Knee.Med			L.Shank.Upper.Post			L.Shank.Lower.Ant			L.Shank.Lower.Post			L.Shank.Upper.Ant			L.Ankle.Lat			L.Ankle.Med			L.Heel.Upper			L.Heel.Med			L.Heel.Lat			L.Toe.Lat			L.Toe.Med			L.Toe.Tip			Cervical.Spine			Back			
		X1	Y1	Z1	X2	Y2	Z2	X3	Y3	Z3	X4	Y4	Z4	X5	Y5	Z5	X6	Y6	Z6	X7	Y7	Z7	X8	Y8	Z8	X9	Y9	Z9	X10	Y10	Z10	X11	Y11	Z11	X12	Y12	Z12	X13	Y13	Z13	X14	Y14	Z14	X15	Y15	Z15	X16	Y16	Z16	X17	Y17	Z17	X18	Y18	Z18	X19	Y19	Z19	X20	Y20	Z20	X21	Y21	Z21	X22	Y22	Z22	X23	Y23	Z23	X24	Y24	Z24	X25	Y25	Z25	X26	Y26	Z26	X27	Y27	Z27	X28	Y28	Z28	X29	Y29	Z29	X30	Y30	Z30	X31	Y31	Z31	X32	Y32	Z32	X33	Y33	Z33	X34	Y34	Z34	X35	Y35	Z35	X36	Y36	Z36	X37	Y37	Z37	X38	Y38	Z38	X39	Y39	Z39	X40	Y40	Z40	X41	Y41	Z41	X42	Y42	Z42	X43	Y43	Z43	X44	Y44	Z44	X45	Y45	Z45	X46	Y46	Z46	X47	Y47	Z47	X48	Y48	Z48	X49	Y49	Z49	X50	Y50	Z50	X51	Y51	Z51	

53	0.21667	-1169.3	1227.2	290.36	-1284.8	1467.9	467.91	-1308.9	1494.9	133.6	-1290.5	1784.4	311.82	NaN	NaN	NaN	-1189.4	1025.5	167.67	NaN	NaN	NaN	NaN	NaN	NaN	-1265.9	897.07	465.71	-1277.8	919.27	100.46	-1295.4	1079.2	448.55	-1289.1	1106.5	140.9	-1409.3	1001.3	273.67	-1250.6	698.28	454.12	-1156.1	611.32	439.55	-1230.6	610.6	438.64	-1172.3	704.33	452.54	-1182	512.14	434.16	-1191.9	510.89	299.01	-1351.7	431.66	439.39	-1358.4	341.77	417.33	-1405	380.37	430.28	-1295.6	391.36	427.44	-1539	281.92	400.55	-1504.3	261.46	322.82	-1585.1	306.04	347.97	-1598	284.28	320.7	-1604.2	292.73	380.63	-1539.9	127.56	426.27	-1516	119.68	314.14	NaN	NaN	NaN	-1260.9	707.82	118.98	-1162.4	631.86	144.45	-1231.2	623.19	138.51	-1187.8	714.32	119.04	-1198.9	523.86	162.74	-1202.1	527.01	287.18	-1252.1	340.25	163.82	-1181.2	257.52	190.37	-1254.6	267.66	182.13	-1185.9	330.34	171.83	-1231.4	97.723	203.25	-1208.7	107.03	291.93	-1282.3	74.542	253.21	-1269.6	40.744	283.44	-1273.9	48.738	219.94	-1097.8	41.018	189.85	-1081.4	45.54	305.13	-1016.8	64.346	257.39	-1362.2	1526.5	297.54	-1410	1243.3	307.05
54	0.22083	-1164.3	1228	290.44	-1279.5	1468.6	467.85	-1303.6	1495.8	133.59	-1285.1	1785.2	311.72	-1188.2	1014.6	399.76	-1184.2	1026	167.6	NaN	NaN	NaN	NaN	NaN	NaN	-1260.4	898.06	465.64	-1273	919.82	100.4	-1290.6	1080.1	448.38	-1283.9	1107.2	140.69	-1404.3	1002.1	273.42	-1242.3	699.38	453.99	-1147.2	613.44	439.18	-1221.1	611.86	438.47	-1164.3	706.3	452.21	-1171.9	514.01	433.89	-1182.3	512.65	298.68	-1340.5	432.51	439.46	-1347.3	342.65	417.41	-1394.1	380.83	430.47	-1286.4	392.36	427.26	-1527.6	281.78	400.79	-1492.9	261.53	323.12	-1574.7	304.75	348.32	-1587.1	282.52	321.13	-1593.5	291.26	381.03	-1525.9	127.69	427.57	-1502.2	119.59	315.35	NaN	NaN	NaN	-1257.6	708.41	118.96	-1159.8	631.67	144.42	-1228.5	623.57	138.4	-1184.6	714.37	119.03	-1197	523.92	162.7	-1199.9	527.07	287.08	-1251.2	340.49	163.87	-1180.5	257.51	190.32	-1254	267.9	182.27	-1185	330.3	171.75	-1231.2	97.839	203.38	-1208.5	107.13	291.99	-1282.2	74.678	253.22	-1269.5	40.829	283.42	-1273.8	48.847	219.92	-1097.8	40.936	189.8	-1081.3	45.503	305.21	-1016.7	64.116	257.36	-1356.5	1527.1	297.41	-1404.9	1244.1	306.77
55	0.225	-1159.2	1228.7	290.52	-1274.1	1469.4	467.8	-1298.3	1496.6	133.57	-1279.8	1785.9	311.64	-1184.1	1015.3	399.89	-1179	1026.6	167.53	NaN	NaN	NaN	NaN	NaN	NaN	-1254.9	899.05	465.58	-1268.2	920.36	100.36	-1285.8	1081.1	448.22	-1278.7	1107.8	140.49	-1399.4	1002.9	273.21	-1234.2	700.51	453.9	-1138.4	615.58	438.78	-1211.7	613.17	438.35	-1156.3	708.29	451.88	-1161.9	515.92	433.59	-1172.8	514.47	298.34	-1329.5	433.26	439.5	-1336.1	343.44	417.5	-1383.2	381.15	430.63	-1276.9	393.38	427.07	-1516.1	281.36	401.04	-1481.5	261.35	323.43	-1564.1	303.13	348.69	-1576.2	280.43	321.58	-1582.8	289.44	381.44	-1511.6	127.59	428.87	-1488.2	119.29	316.55	NaN	NaN	NaN	-1254.4	708.99	118.93	-1157.2	631.49	144.39	-1225.8	623.96	138.28	-1181.3	714.43	119	-1195.2	523.98	162.65	-1197.8	527.12	286.98	-1250.2	340.73	163.9	-1179.8	257.52	190.27	-1253.3	268.13	182.39	-1184	330.27	171.68	-1231	97.961	203.5	-1208.4	107.22	292.03	-1282.2	74.811	253.23	-1269.5	40.925	283.4	-1273.8	48.958	219.9	-1097.7	40.852	189.75	-1081.2	45.456	305.29	-1016.7	63.872	257.32	-1350.8	1527.8	297.28	-1399.8	1245	306.49
56	0.22917	-1154.2	1229.5	290.61	-1268.8	1470.1	467.75	-1293	1497.5	133.56	-1274.4	1786.7	311.59	-1179.9	1016.1	400	-1173.8	1027.2	167.47	NaN	NaN	NaN	NaN	NaN	NaN	-1249.4	900.05	465.55	-1263.5	920.88	100.33	-1281	1082	448.07	-1273.4	1108.4	140.28	-1394.4	1003.7	273.02	-1226.1	701.67	453.85	-1129.6	617.75	438.35	-1202.5	614.53	438.26	-1148.5	710.31	451.55	-1152	517.85	433.26	-1163.4	516.33	298	-1318.5	433.92	439.5	-1324.8	344.14	417.6	-1372.3	381.32	430.76	-1267	394.4	426.86	-1504.5	280.66	401.29	-1470	260.91	323.74	-1553.5	301.19	349.07	-1565.2	278	322.04	-1572	287.28	381.88	-1497.1	127.28	430.17	-1474	118.81	317.73	NaN	NaN	NaN	-1251.2	709.57	118.9	-1154.6	631.32	144.36	-1223.2	624.35	138.15	-1178	714.51	118.96	-1193.3	524.04	162.6	-1195.8	527.15	286.88	-1249.3	340.97	163.92	-1179.2	257.52	190.23	-1252.7	268.37	182.49	-1183.1	330.26	171.6	-1230.8	98.089	203.61	-1208.2	107.32	292.06	-1282.1	74.94	253.24	-1269.5	41.03	283.39	-1273.7	49.07	219.88	-1097.7	40.767	189.7	-1081.1	45.396	305.36	-1016.6	63.612	257.29	-1345.1	1528.4	297.16	-1394.7	1245.7	306.21
